<svg width="1157" height="368" viewBox="0 0 1157 368" fill="none" xmlns="http://www.w3.org/2000/svg">
<mask id="path-1-outside-1_0_129" maskUnits="userSpaceOnUse" x="-0.5" y="0.5" width="1157" height="400" fill="black">
<rect fill="white" x="-0.5" y="0.5" width="1157" height="400"/>
<path d="M2.06 329.5V2.89998H51.74V311.1L25.52 283.96H210.9V329.5H2.06ZM245.429 329.5V2.89998H308.449L459.329 269.24V2.89998H509.009V329.5H443.689L295.109 69.14V329.5H245.429ZM575.497 329.5V2.89998H787.557V48.44H598.957L625.177 21.3V171.26L598.957 147.8H779.277V191.96H598.957L625.177 168.5V329.5H575.497ZM883.787 329.5C867.84 329.5 854.96 325.36 845.147 317.08C835.333 308.8 830.427 295.613 830.427 277.52V2.89998H879.187V272.92C879.187 278.44 880.567 282.58 883.327 285.34C886.393 288.1 890.687 289.48 896.207 289.48H915.527V329.5H883.787ZM956.873 398.5V358.48H986.773C995.053 358.48 1001.19 357.253 1005.17 354.8C1009.16 352.347 1012.23 348.207 1014.37 342.38L1022.19 322.14H1007.01L918.693 84.78H970.213L1037.37 277.06L1101.31 84.78H1153.29L1055.77 358.02C1050.87 372.127 1043.51 382.4 1033.69 388.84C1024.19 395.28 1010.85 398.5 993.673 398.5H956.873Z"/>
</mask>
<path d="M2.06 329.5V2.89998H51.74V311.1L25.52 283.96H210.9V329.5H2.06ZM245.429 329.5V2.89998H308.449L459.329 269.24V2.89998H509.009V329.5H443.689L295.109 69.14V329.5H245.429ZM575.497 329.5V2.89998H787.557V48.44H598.957L625.177 21.3V171.26L598.957 147.8H779.277V191.96H598.957L625.177 168.5V329.5H575.497ZM883.787 329.5C867.84 329.5 854.96 325.36 845.147 317.08C835.333 308.8 830.427 295.613 830.427 277.52V2.89998H879.187V272.92C879.187 278.44 880.567 282.58 883.327 285.34C886.393 288.1 890.687 289.48 896.207 289.48H915.527V329.5H883.787ZM956.873 398.5V358.48H986.773C995.053 358.48 1001.19 357.253 1005.17 354.8C1009.16 352.347 1012.23 348.207 1014.37 342.38L1022.19 322.14H1007.01L918.693 84.78H970.213L1037.37 277.06L1101.31 84.78H1153.29L1055.77 358.02C1050.87 372.127 1043.51 382.4 1033.69 388.84C1024.19 395.28 1010.85 398.5 993.673 398.5H956.873Z" fill="url(#paint0_linear_0_129)"/>
<path d="M2.06 329.5H0.0600014V331.5H2.06V329.5ZM2.06 2.89998V0.899982H0.0600014V2.89998H2.06ZM51.74 2.89998H53.74V0.899982H51.74V2.89998ZM51.74 311.1L50.3016 312.49L53.74 316.049V311.1H51.74ZM25.52 283.96V281.96H20.8069L24.0816 285.35L25.52 283.96ZM210.9 283.96H212.9V281.96H210.9V283.96ZM210.9 329.5V331.5H212.9V329.5H210.9ZM2.06 329.5H4.06V2.89998H2.06H0.0600014V329.5H2.06ZM2.06 2.89998V4.89998H51.74V2.89998V0.899982H2.06V2.89998ZM51.74 2.89998H49.74V311.1H51.74H53.74V2.89998H51.74ZM51.74 311.1L53.1784 309.71L26.9584 282.57L25.52 283.96L24.0816 285.35L50.3016 312.49L51.74 311.1ZM25.52 283.96V285.96H210.9V283.96V281.96H25.52V283.96ZM210.9 283.96H208.9V329.5H210.9H212.9V283.96H210.9ZM210.9 329.5V327.5H2.06V329.5V331.5H210.9V329.5ZM245.429 329.5H243.429V331.5H245.429V329.5ZM245.429 2.89998V0.899982H243.429V2.89998H245.429ZM308.449 2.89998L310.189 1.91418L309.614 0.899982H308.449V2.89998ZM459.329 269.24L457.589 270.226L461.329 276.828V269.24H459.329ZM459.329 2.89998V0.899982H457.329V2.89998H459.329ZM509.009 2.89998H511.009V0.899982H509.009V2.89998ZM509.009 329.5V331.5H511.009V329.5H509.009ZM443.689 329.5L441.952 330.491L442.527 331.5H443.689V329.5ZM295.109 69.14L296.846 68.1487L293.109 61.6002V69.14H295.109ZM295.109 329.5V331.5H297.109V329.5H295.109ZM245.429 329.5H247.429V2.89998H245.429H243.429V329.5H245.429ZM245.429 2.89998V4.89998H308.449V2.89998V0.899982H245.429V2.89998ZM308.449 2.89998L306.709 3.88578L457.589 270.226L459.329 269.24L461.069 268.254L310.189 1.91418L308.449 2.89998ZM459.329 269.24H461.329V2.89998H459.329H457.329V269.24H459.329ZM459.329 2.89998V4.89998H509.009V2.89998V0.899982H459.329V2.89998ZM509.009 2.89998H507.009V329.5H509.009H511.009V2.89998H509.009ZM509.009 329.5V327.5H443.689V329.5V331.5H509.009V329.5ZM443.689 329.5L445.426 328.509L296.846 68.1487L295.109 69.14L293.372 70.1313L441.952 330.491L443.689 329.5ZM295.109 69.14H293.109V329.5H295.109H297.109V69.14H295.109ZM295.109 329.5V327.5H245.429V329.5V331.5H295.109V329.5ZM575.497 329.5H573.497V331.5H575.497V329.5ZM575.497 2.89998V0.899982H573.497V2.89998H575.497ZM787.557 2.89998H789.557V0.899982H787.557V2.89998ZM787.557 48.44V50.44H789.557V48.44H787.557ZM598.957 48.44L597.518 47.0504L594.244 50.44H598.957V48.44ZM625.177 21.3H627.177V16.3513L623.738 19.9104L625.177 21.3ZM625.177 171.26L623.843 172.75L627.177 175.733V171.26H625.177ZM598.957 147.8V145.8H593.722L597.623 149.29L598.957 147.8ZM779.277 147.8H781.277V145.8H779.277V147.8ZM779.277 191.96V193.96H781.277V191.96H779.277ZM598.957 191.96L597.623 190.47L593.722 193.96H598.957V191.96ZM625.177 168.5H627.177V164.027L623.843 167.01L625.177 168.5ZM625.177 329.5V331.5H627.177V329.5H625.177ZM575.497 329.5H577.497V2.89998H575.497H573.497V329.5H575.497ZM575.497 2.89998V4.89998H787.557V2.89998V0.899982H575.497V2.89998ZM787.557 2.89998H785.557V48.44H787.557H789.557V2.89998H787.557ZM787.557 48.44V46.44H598.957V48.44V50.44H787.557V48.44ZM598.957 48.44L600.395 49.8296L626.615 22.6896L625.177 21.3L623.738 19.9104L597.518 47.0504L598.957 48.44ZM625.177 21.3H623.177V171.26H625.177H627.177V21.3H625.177ZM625.177 171.26L626.51 169.77L600.29 146.31L598.957 147.8L597.623 149.29L623.843 172.75L625.177 171.26ZM598.957 147.8V149.8H779.277V147.8V145.8H598.957V147.8ZM779.277 147.8H777.277V191.96H779.277H781.277V147.8H779.277ZM779.277 191.96V189.96H598.957V191.96V193.96H779.277V191.96ZM598.957 191.96L600.29 193.45L626.51 169.99L625.177 168.5L623.843 167.01L597.623 190.47L598.957 191.96ZM625.177 168.5H623.177V329.5H625.177H627.177V168.5H625.177ZM625.177 329.5V327.5H575.497V329.5V331.5H625.177V329.5ZM830.427 2.89998V0.899982H828.427V2.89998H830.427ZM879.187 2.89998H881.187V0.899982H879.187V2.89998ZM883.327 285.34L881.912 286.754L881.95 286.791L881.989 286.827L883.327 285.34ZM915.527 289.48H917.527V287.48H915.527V289.48ZM915.527 329.5V331.5H917.527V329.5H915.527ZM883.787 329.5V327.5C868.194 327.5 855.808 323.459 846.436 315.551L845.147 317.08L843.857 318.609C854.112 327.261 867.486 331.5 883.787 331.5V329.5ZM845.147 317.08L846.436 315.551C837.235 307.788 832.427 295.275 832.427 277.52H830.427H828.427C828.427 295.952 833.431 309.812 843.857 318.609L845.147 317.08ZM830.427 277.52H832.427V2.89998H830.427H828.427V277.52H830.427ZM830.427 2.89998V4.89998H879.187V2.89998V0.899982H830.427V2.89998ZM879.187 2.89998H877.187V272.92H879.187H881.187V2.89998H879.187ZM879.187 272.92H877.187C877.187 278.748 878.645 283.487 881.912 286.754L883.327 285.34L884.741 283.926C882.488 281.673 881.187 278.132 881.187 272.92H879.187ZM883.327 285.34L881.989 286.827C885.532 290.015 890.362 291.48 896.207 291.48V289.48V287.48C891.011 287.48 887.255 286.185 884.664 283.853L883.327 285.34ZM896.207 289.48V291.48H915.527V289.48V287.48H896.207V289.48ZM915.527 289.48H913.527V329.5H915.527H917.527V289.48H915.527ZM915.527 329.5V327.5H883.787V329.5V331.5H915.527V329.5ZM956.873 398.5H954.873V400.5H956.873V398.5ZM956.873 358.48V356.48H954.873V358.48H956.873ZM1005.17 354.8L1006.22 356.503L1005.17 354.8ZM1014.37 342.38L1012.51 341.659L1012.5 341.674L1012.5 341.689L1014.37 342.38ZM1022.19 322.14L1024.06 322.861L1025.11 320.14H1022.19V322.14ZM1007.01 322.14L1005.14 322.837L1005.62 324.14H1007.01V322.14ZM918.693 84.78V82.78H915.814L916.818 85.4775L918.693 84.78ZM970.213 84.78L972.101 84.1205L971.633 82.78H970.213V84.78ZM1037.37 277.06L1035.48 277.719L1037.42 283.258L1039.27 277.691L1037.37 277.06ZM1101.31 84.78V82.78H1099.87L1099.41 84.1489L1101.31 84.78ZM1153.29 84.78L1155.18 85.4523L1156.13 82.78H1153.29V84.78ZM1055.77 358.02L1053.89 357.348L1053.89 357.355L1053.88 357.363L1055.77 358.02ZM1033.69 388.84L1032.6 387.168L1032.58 387.176L1032.57 387.184L1033.69 388.84ZM956.873 398.5H958.873V358.48H956.873H954.873V398.5H956.873ZM956.873 358.48V360.48H986.773V358.48V356.48H956.873V358.48ZM986.773 358.48V360.48C995.176 360.48 1001.76 359.249 1006.22 356.503L1005.17 354.8L1004.12 353.097C1000.61 355.258 994.93 356.48 986.773 356.48V358.48ZM1005.17 354.8L1006.22 356.503C1010.7 353.748 1014 349.181 1016.25 343.071L1014.37 342.38L1012.5 341.689C1010.45 347.232 1007.62 350.945 1004.12 353.097L1005.17 354.8ZM1014.37 342.38L1016.24 343.101L1024.06 322.861L1022.19 322.14L1020.33 321.419L1012.51 341.659L1014.37 342.38ZM1022.19 322.14V320.14H1007.01V322.14V324.14H1022.19V322.14ZM1007.01 322.14L1008.89 321.443L920.567 84.0825L918.693 84.78L916.818 85.4775L1005.14 322.837L1007.01 322.14ZM918.693 84.78V86.78H970.213V84.78V82.78H918.693V84.78ZM970.213 84.78L968.325 85.4395L1035.48 277.719L1037.37 277.06L1039.26 276.401L972.101 84.1205L970.213 84.78ZM1037.37 277.06L1039.27 277.691L1103.21 85.4111L1101.31 84.78L1099.41 84.1489L1035.47 276.429L1037.37 277.06ZM1101.31 84.78V86.78H1153.29V84.78V82.78H1101.31V84.78ZM1153.29 84.78L1151.41 84.1077L1053.89 357.348L1055.77 358.02L1057.66 358.692L1155.18 85.4523L1153.29 84.78ZM1055.77 358.02L1053.88 357.363C1049.08 371.168 1041.95 381.029 1032.6 387.168L1033.69 388.84L1034.79 390.512C1045.06 383.771 1052.65 373.085 1057.66 358.677L1055.77 358.02ZM1033.69 388.84L1032.57 387.184C1023.52 393.314 1010.63 396.5 993.673 396.5V398.5V400.5C1011.06 400.5 1024.85 397.246 1034.81 390.496L1033.69 388.84ZM993.673 398.5V396.5H956.873V398.5V400.5H993.673V398.5Z" fill="url(#paint1_linear_0_129)" mask="url(#path-1-outside-1_0_129)"/>
<defs>
<linearGradient id="paint0_linear_0_129" x1="563" y1="2.5" x2="563" y2="329.5" gradientUnits="userSpaceOnUse">
<stop stop-color="white" stop-opacity="0.08"/>
<stop offset="1" stop-color="#999999" stop-opacity="0"/>
</linearGradient>
<linearGradient id="paint1_linear_0_129" x1="563" y1="-92.1264" x2="563" y2="342.077" gradientUnits="userSpaceOnUse">
<stop stop-color="white" stop-opacity="0.6"/>
<stop offset="1" stop-color="#999999" stop-opacity="0"/>
</linearGradient>
</defs>
</svg>
