<svg width="179" height="67" viewBox="0 0 179 67" fill="none" xmlns="http://www.w3.org/2000/svg">
<path d="M31.9355 43.728L33.3035 51H0.975469V2.04H10.2635V43.728H31.9355ZM49.4275 51H40.1395V2.04H49.4275L69.0115 30.336L72.1075 34.728V2.04H81.4675V51H72.1075L51.2995 21.048L49.4275 18.24V51ZM118.342 22.992L119.638 30.264H103.006V51H93.7177V2.04H121.438L122.878 9.384H103.006V22.992H118.342ZM138.269 51H128.981V0.959996L138.269 0.167998V51ZM154.022 52.656L155.678 48.552L143.654 17.592L152.87 14.712L161.006 37.248L168.566 16.08H178.43L162.806 55.608C162.086 57.48 160.958 59.184 159.422 60.72C157.886 62.304 156.134 63.624 154.166 64.68C152.246 65.736 150.254 66.504 148.19 66.984L144.878 59.28C145.982 58.8 147.158 58.248 148.406 57.624C149.702 57 150.854 56.28 151.862 55.464C152.918 54.648 153.638 53.712 154.022 52.656Z" fill="url(#paint0_linear_0_38)"/>
<defs>
<linearGradient id="paint0_linear_0_38" x1="87" y1="-5" x2="87" y2="67" gradientUnits="userSpaceOnUse">
<stop stop-color="#FFDF6F"/>
<stop offset="0.5" stop-color="#F8C455"/>
<stop offset="1" stop-color="#FFDF6F"/>
</linearGradient>
</defs>
</svg>
