<svg version="1.1" xmlns="http://www.w3.org/2000/svg" style="display: block;" viewBox="0 0 2048 2048" width="1024" height="1024">
<path transform="translate(0,0)" fill="rgb(253,253,253)" d="M 0 0 L 2048 0 L 2048 2048 L 839.987 2048 L 815.87 2048 L 590.236 2048 L 565.16 2048 L 447.208 2048 L 418.29 2048 L 107.324 2048 L 76.1897 2048 L 0 2048 L 0 1952.43 L 0 1923.09 L 0 1808.03 L 0 1782.06 L 0 1574.14 L 0 1549.58 L 0 0 z"/>
<path transform="translate(0,0)" fill="rgb(100,61,96)" d="M 587.857 1406.17 C 590.377 1406.1 593.101 1406.12 595.544 1406.84 C 599.707 1408.08 603.327 1411.74 605.04 1415.65 A 13.5604 13.5604 0 0 1 605.093 1426.62 C 603.048 1431.33 599.718 1433.29 595.124 1435.11 C 592.834 1435.15 590.234 1435.13 588.006 1434.57 C 583.645 1433.47 579.755 1430.11 577.783 1426.12 A 13.2485 13.2485 0 0 1 577.444 1415.03 C 579.485 1410.16 583.284 1408.26 587.857 1406.17 z"/>
<path transform="translate(0,0)" fill="rgb(100,61,96)" d="M 1033.92 1403.01 C 1036.23 1402.99 1038.79 1403.08 1041.02 1403.75 C 1045.15 1404.99 1048.83 1408.52 1050.62 1412.38 A 14.4242 14.4242 0 0 1 1050.97 1423.62 C 1049.08 1428.58 1045.55 1430.72 1040.97 1432.96 C 1038.43 1433.05 1035.62 1433.14 1033.14 1432.41 C 1029.38 1431.3 1026.16 1428.38 1024.4 1424.91 A 14.7168 14.7168 0 0 1 1023.59 1413.45 C 1025.43 1408 1028.93 1405.42 1033.92 1403.01 z"/>
<path transform="translate(0,0)" fill="rgb(100,61,96)" d="M 1030.85 1445.15 C 1032.34 1444.98 1033.82 1444.86 1035.31 1444.82 C 1039.8 1444.68 1043.88 1445.27 1047.11 1448.75 C 1053.36 1455.5 1052.06 1506.43 1050.92 1517.57 C 1050.29 1523.74 1047.06 1526.74 1042.52 1530.61 C 1040.11 1531.11 1037.28 1531.43 1034.83 1531.11 C 1032.06 1530.75 1029.5 1528.86 1027.84 1526.69 C 1025.2 1523.24 1023.79 1518.95 1023.17 1514.7 C 1021.36 1502.39 1021.84 1473.45 1023.28 1460.89 C 1024.1 1453.73 1025.12 1449.71 1030.85 1445.15 z"/>
<path transform="translate(0,0)" fill="rgb(100,61,96)" d="M 586.924 1441 C 590.245 1441.02 593.288 1441.17 596.416 1442.41 C 599.333 1443.56 601.612 1445.47 602.739 1448.46 C 606.084 1457.34 606.565 1517.54 602.851 1525.38 C 600.917 1529.46 597.966 1530.74 593.897 1532.17 C 593.433 1532.15 592.968 1532.15 592.505 1532.1 C 587.862 1531.67 583.548 1530.26 580.726 1526.35 C 575.802 1519.52 574.966 1458.3 577.583 1449.61 C 578.916 1445.2 583.149 1442.99 586.924 1441 z"/>
<path transform="translate(0,0)" fill="rgb(100,61,96)" d="M 1445.11 1397.09 C 1447.64 1397 1450.35 1396.8 1452.85 1397.33 C 1456.21 1398.03 1459.97 1400.08 1461.71 1403.15 C 1465.29 1409.48 1465.93 1512.49 1463.61 1521.33 C 1462.32 1526.27 1458.93 1528.92 1454.82 1531.54 C 1452.5 1531.83 1450.05 1532.22 1447.71 1531.99 C 1443.75 1531.61 1440.4 1529.6 1438.09 1526.39 C 1436.05 1523.56 1435.8 1520.5 1435.5 1517.13 C 1433.67 1496.54 1435.04 1474.69 1435.08 1453.98 C 1435.1 1439.87 1433.21 1420.18 1436.01 1406.68 C 1437.01 1401.88 1441.31 1399.49 1445.11 1397.09 z"/>
<path transform="translate(0,0)" fill="rgb(229,223,229)" d="M 1066.65 1885.34 C 1070.65 1884.84 1074.72 1885 1078.72 1885.43 C 1095.5 1887.22 1111.43 1896.87 1121.81 1910.01 C 1128.93 1919.03 1136.74 1933 1134.91 1944.77 C 1134.36 1948.26 1133.21 1950.18 1130.41 1952.38 C 1127.49 1953.37 1125.15 1953.29 1122.22 1952.41 C 1113.09 1949.66 1111.18 1935.62 1106.78 1928.03 C 1100.31 1916.85 1091.96 1911.44 1079.83 1908 C 1025.74 1903.99 1038.02 1945.26 1019.62 1951.51 C 1017.21 1952.33 1015.35 1952.37 1013.09 1951.07 C 1009.39 1948.95 1007.35 1944.68 1006.7 1940.6 C 1005.15 1930.96 1012.33 1919.66 1018.09 1912.29 C 1030.87 1895.94 1046.23 1887.94 1066.65 1885.34 z"/>
<path transform="translate(0,0)" fill="rgb(229,223,229)" d="M 946.793 1159.68 C 949.375 1159.97 951.987 1160.21 954.257 1161.59 C 963.156 1166.98 964.578 1183.09 966.704 1192.42 C 971.16 1193.59 975.672 1194.82 980.03 1196.33 C 984.879 1198 990.823 1201.48 992.687 1206.58 C 993.649 1209.22 993.268 1211.56 992.07 1214.03 C 988.205 1221.97 974.336 1224.5 966.701 1226.57 C 963.206 1237.99 960.955 1248.19 951.28 1256.01 C 950.133 1255.96 949.155 1255.98 948.016 1255.66 C 937.611 1252.77 934.415 1235.53 930.287 1226.93 L 929.709 1225.74 A 471.178 471.178 0 0 1 922.978 1223.3 C 916.974 1221.06 908.782 1217.86 906.486 1211.19 C 905.6 1208.61 906.156 1206.35 907.459 1204.04 C 911.656 1196.62 923.81 1194.46 931.403 1192.46 C 936.016 1180.6 937.198 1168.94 946.793 1159.68 z"/>
<path transform="translate(0,0)" fill="rgb(100,61,96)" d="M 864.817 1408 C 866.878 1407.98 869.008 1407.92 871.057 1408.17 C 876.825 1408.87 879.873 1413.92 882.858 1418.26 C 883.343 1425.14 883.224 1432.13 883.326 1439.02 C 888.486 1438.86 894.362 1438.14 898.981 1440.9 C 902.116 1442.78 904.81 1445.75 905.259 1449.52 C 905.689 1453.13 904.011 1456.54 901.536 1459.05 C 896.272 1464.39 890.756 1464.16 883.767 1464.37 C 883.672 1479.33 884.556 1494.36 884.131 1509.31 C 883.877 1518.25 883.17 1524.65 876.464 1530.97 C 874.728 1531.54 873.046 1531.83 871.23 1531.99 C 867.28 1532.33 864.222 1531.71 861.155 1528.96 C 851.134 1519.99 855.907 1479.86 855.041 1466.33 C 850.562 1464.94 845.444 1463.57 841.523 1460.93 C 838.855 1459.13 836.754 1456.71 836.433 1453.37 C 836.045 1449.34 838.589 1444.76 841.284 1441.87 C 844.798 1438.1 850.189 1438.8 854.891 1438.75 C 854.767 1432.65 853.959 1425.45 855.422 1419.52 C 856.895 1413.55 859.681 1411.07 864.817 1408 z"/>
<path transform="translate(0,0)" fill="rgb(229,223,229)" d="M 605.743 358.925 C 608.462 358.842 612.485 358.395 615.04 359.382 C 623.494 362.649 626.021 380.933 630.494 388.827 L 631.201 390.049 C 638.236 393.729 647.61 394.33 653.794 399.315 C 656.386 401.404 657.927 404.152 658.059 407.542 C 658.074 407.925 658.074 408.309 658.059 408.691 C 657.673 418.721 649.018 421.071 641.022 423.837 C 618.37 431.674 628.786 440.388 615.924 454.505 C 613.4 455.186 610.295 456.143 607.765 455.138 C 599.065 451.683 595.777 436.36 591.822 428.576 L 591.217 427.402 C 585.807 424.934 579.824 423.78 574.445 421.291 C 570.324 419.384 565.022 415.433 563.91 410.759 C 563.286 408.139 564.187 405.591 565.677 403.444 C 571.023 395.741 581.061 393.329 589.656 391.509 C 597.158 381.247 596.897 367.714 605.743 358.925 z"/>
<path transform="translate(0,0)" fill="rgb(229,223,229)" d="M 207.758 1112 C 210.332 1111.87 212.946 1111.7 215.471 1112.35 C 225.74 1114.98 228.632 1135.04 232.511 1143.41 C 232.674 1143.76 232.846 1144.11 233.013 1144.46 C 239.667 1148.12 247.801 1149.71 253.766 1154.54 C 256.892 1157.06 258.782 1160.27 258.911 1164.34 C 259.331 1177.6 238.023 1177.75 231.164 1185.56 C 224.464 1193.2 224.364 1203.96 216.97 1211.95 C 214.957 1212.16 212.449 1212.59 210.455 1212.28 C 200.175 1210.68 196.597 1192.53 191.624 1184.8 C 191.397 1184.45 191.161 1184.1 190.929 1183.76 C 183.132 1180.59 175.557 1177.69 169.158 1172.07 C 167.046 1170.22 164.232 1167.33 164.291 1164.33 C 164.458 1155.79 185.464 1147.99 191.137 1142.08 C 199.53 1133.35 197.668 1121.44 207.758 1112 z"/>
<path transform="translate(0,0)" fill="rgb(100,61,96)" d="M 509.86 1397.16 C 514.988 1397.12 520.007 1397.28 523.842 1401.2 C 526.676 1404.1 527.903 1407.96 528.562 1411.86 C 530.349 1422.44 529.562 1434.18 529.637 1444.93 L 529.912 1501.74 C 537.875 1502.07 546.662 1500.59 554.425 1502.51 C 558.27 1503.46 561.717 1505.28 563.617 1508.9 C 565.535 1512.56 565.607 1517.72 564.341 1521.6 C 562.786 1526.36 558.925 1528.93 554.758 1531.24 C 540.743 1531.79 523.384 1533.81 509.639 1530.77 C 506.639 1530.11 503.064 1528.99 501.505 1526.14 C 499.603 1522.65 499.233 1517.2 498.952 1513.24 C 497.967 1499.31 497.001 1414.34 500.432 1405.55 C 502.218 1400.97 505.599 1399.1 509.86 1397.16 z"/>
<path transform="translate(0,0)" fill="rgb(100,61,96)" d="M 949.314 1438.35 C 952.589 1437.94 956.193 1437.93 959.499 1437.96 C 969.683 1438.06 979.663 1441.11 986.784 1448.67 C 1001.37 1464.15 999.449 1492.58 998.795 1512.44 C 998.599 1518.39 997.451 1525.19 992.437 1529.11 C 989.668 1531.27 986.697 1531.91 983.268 1531.49 C 960.514 1528.69 978.672 1483.19 965.764 1467.88 C 965.541 1467.61 965.311 1467.35 965.084 1467.09 C 960.895 1465.41 953.773 1463.98 949.413 1465.75 C 936.4 1471.03 947.943 1512.65 941.765 1525.66 C 940.414 1528.5 938.246 1530.51 935.165 1531.37 C 931.386 1532.41 926.986 1531.98 923.673 1529.83 C 919.938 1527.41 918.809 1524.37 917.951 1520.15 C 915.794 1509.54 914.737 1457.64 920.629 1449.94 C 927.018 1441.58 939.547 1439.56 949.314 1438.35 z"/>
<path transform="translate(0,0)" fill="rgb(100,61,96)" d="M 1100.7 1438.22 C 1109.48 1437.39 1118.34 1437.3 1126.92 1439.58 C 1135.19 1441.78 1142.2 1445.56 1146.56 1453.11 C 1154.9 1467.53 1158.5 1506.42 1153.91 1521.8 C 1152.74 1525.72 1150.42 1529.78 1146.45 1531.42 C 1143.38 1532.69 1139.61 1532.25 1136.58 1531.1 C 1120.6 1525.05 1131.59 1484.21 1124.52 1469.82 C 1123.08 1468.46 1121.53 1466.93 1119.73 1466.07 C 1116.11 1464.34 1110.48 1464.54 1106.75 1465.83 C 1105.09 1466.41 1102.18 1467.89 1101.48 1469.52 C 1097.47 1478.75 1104.65 1510.21 1096.79 1526.66 C 1095.44 1529.5 1093.45 1532.22 1090.19 1532.97 C 1087.22 1533.64 1083.9 1532.25 1081.4 1530.72 C 1076.83 1527.94 1074.95 1523.71 1073.98 1518.59 C 1072.46 1510.54 1072.1 1468.55 1073.22 1460.22 C 1073.75 1456.3 1074.88 1452.52 1077.16 1449.25 C 1082.71 1441.28 1091.85 1439.86 1100.7 1438.22 z"/>
<path transform="translate(0,0)" fill="rgb(100,61,96)" d="M 1556.92 1435.69 C 1557.88 1435.79 1558.85 1435.86 1559.8 1436.03 C 1564.21 1436.8 1568.54 1439.64 1571 1443.38 C 1573.46 1447.14 1574.14 1451.52 1573.16 1455.86 C 1569.01 1474.37 1556.45 1493.48 1548.38 1510.71 C 1541.87 1524.6 1536.35 1540.23 1528.38 1553.29 C 1525.64 1557.78 1522.31 1562.25 1517.64 1564.88 C 1514.51 1566.63 1510.72 1567.47 1507.26 1566.14 C 1503.16 1564.57 1498.66 1559.33 1497.3 1555.23 C 1494.87 1547.84 1503.37 1538.72 1506.96 1532.9 C 1510.15 1527.73 1513.23 1523.86 1511.72 1517.64 C 1504.39 1498.86 1489.24 1474.03 1484.22 1456.86 C 1483.08 1452.95 1482.56 1448.52 1483.63 1444.53 C 1484.39 1441.69 1486.07 1439.03 1488.87 1437.83 C 1492.48 1436.27 1498.35 1436.53 1501.92 1438.16 C 1513.24 1443.32 1523.43 1478.29 1528.31 1490.51 C 1534.57 1475.09 1545.04 1446.61 1556.92 1435.69 z"/>
<path transform="translate(0,0)" fill="rgb(100,61,96)" d="M 751.076 1404.16 C 751.384 1404.12 751.691 1404.07 751.999 1404.02 C 756.272 1403.43 760.769 1403.41 764.201 1406.48 C 772.422 1413.84 768.954 1433.57 769.42 1443.78 C 773.004 1442.02 776.515 1440.31 780.459 1439.52 C 790.106 1437.6 800.151 1438.71 808.449 1444.25 C 817.62 1450.37 822.393 1460.71 824.267 1471.28 C 826.205 1482.2 827.323 1519.31 821.042 1527.43 C 818.952 1530.14 816.101 1531.56 812.69 1531.76 C 808.767 1531.99 804.674 1530.79 801.845 1527.99 C 793.763 1520 796.747 1498.61 796.906 1487.75 C 796.904 1482.5 797.215 1477.28 794.759 1472.46 C 793.086 1469.19 790.513 1466.5 786.826 1465.61 C 780.32 1464.03 774.533 1467.5 769.223 1470.77 C 768.593 1485.34 769.229 1500.08 769.143 1514.68 C 769.108 1520.75 768.486 1524.68 763.922 1528.94 C 761.241 1531.45 758.077 1532.16 754.503 1532 C 750.923 1531.84 747.309 1529.78 745.144 1526.95 C 743.009 1524.16 742.586 1521.28 742.238 1517.89 C 740.678 1502.65 741.888 1486.35 741.921 1470.98 C 741.96 1453.28 740.755 1434.42 742.674 1416.89 C 743.361 1410.61 746.25 1407.92 751.076 1404.16 z"/>
<path transform="translate(0,0)" fill="rgb(100,61,96)" d="M 1351.6 1396.22 C 1366.08 1396.02 1402.09 1392.67 1412.98 1401.12 C 1415.74 1403.26 1417.42 1406.28 1417.71 1409.77 C 1418.01 1413.43 1416.91 1417.24 1414.3 1419.89 C 1404.86 1429.47 1378.8 1426.12 1365.94 1426.05 L 1365.96 1452.15 C 1376.75 1452.34 1389.94 1450.26 1400.23 1453.4 C 1405.81 1455.1 1411.4 1458.67 1414.02 1464.06 C 1415.43 1466.95 1415.59 1469.82 1414.43 1472.86 C 1412.52 1477.88 1407.18 1480.49 1402.56 1482.36 L 1366.7 1482.47 C 1366.87 1493.54 1368.13 1505.97 1366.38 1516.89 C 1365.57 1521.94 1363.93 1527.01 1359.46 1529.93 C 1355.83 1532.3 1350.12 1531.97 1346.18 1530.74 C 1342.46 1529.57 1338.16 1526.79 1336.78 1522.93 C 1333.45 1513.67 1334.31 1410.57 1338.17 1403.69 C 1340.88 1398.86 1346.62 1397.38 1351.6 1396.22 z"/>
<path transform="translate(0,0)" fill="rgb(100,61,96)" d="M 669.659 1438.31 C 670.016 1438.28 670.372 1438.24 670.729 1438.23 C 683.306 1437.6 696.297 1440.02 705.779 1448.86 C 716.952 1459.28 719.41 1474.91 719.841 1489.45 C 720.471 1510.67 720.748 1542.98 704.91 1559.08 C 696.542 1567.59 683.557 1571.93 671.715 1571.86 C 658.039 1571.77 641.35 1567.79 631.681 1557.66 C 629.432 1555.3 627.887 1552.29 628.172 1548.95 C 628.529 1544.74 630.921 1541.53 634.02 1538.88 C 634.249 1538.68 634.483 1538.49 634.714 1538.3 C 646.575 1534.17 655.727 1542.48 666.927 1544.83 C 671.963 1545.89 677.596 1545.95 681.98 1542.92 C 690.963 1536.73 693.519 1522.59 695.147 1512.54 C 688.939 1520.68 681.406 1527.45 671.032 1529.43 C 661.574 1531.23 651.709 1528.53 643.877 1523.09 C 634.836 1516.82 629.294 1507.21 627.532 1496.42 C 625.269 1482.58 628.395 1466.68 637.085 1455.55 C 645.237 1445.1 656.855 1440.1 669.659 1438.31 z"/>
<path transform="translate(0,0)" fill="rgb(253,253,253)" d="M 669.07 1463.03 C 672.483 1462.88 676.007 1462.92 679.248 1464.15 C 684.244 1466.04 688.224 1470.33 690.22 1475.23 C 692.674 1481.26 692.561 1488.46 689.845 1494.39 C 687.041 1500.5 683.058 1503.59 676.925 1505.95 C 674.12 1506.08 671.086 1506.12 668.327 1505.49 C 663.236 1504.33 658.837 1500.49 656.391 1495.96 C 653.258 1490.16 653.046 1482.82 655.258 1476.68 C 657.862 1469.45 662.238 1466.04 669.07 1463.03 z"/>
<path transform="translate(0,0)" fill="rgb(100,61,96)" d="M 1217.25 1438.27 A 52.7286 52.7286 0 0 1 1232.84 1438.88 C 1243.27 1440.91 1252.22 1446.51 1257.98 1455.54 C 1269.53 1473.65 1269.19 1512.17 1264.94 1532.6 C 1262.12 1546.2 1256.11 1559.39 1243.88 1566.98 C 1233.06 1573.7 1216.55 1575.48 1204.21 1572.13 C 1195.63 1569.8 1185.57 1564.53 1181.24 1556.37 C 1179.28 1552.67 1178.51 1548.59 1179.94 1544.58 C 1180.17 1543.96 1180.42 1543.34 1180.65 1542.72 C 1182.33 1540.96 1184.01 1539.18 1186.18 1538.02 C 1194.56 1533.58 1205.32 1543.47 1213.39 1545.79 C 1218.21 1547.17 1224.04 1547.14 1228.44 1544.49 C 1235.59 1540.17 1238.3 1530.48 1240.16 1522.85 C 1234.73 1527.18 1228.65 1530.4 1221.78 1531.72 A 35.6647 35.6647 0 0 1 1194.78 1526.02 C 1184.33 1518.86 1177.97 1506.86 1175.85 1494.56 C 1173.66 1481.86 1176.27 1468.53 1183.81 1457.98 C 1191.9 1446.64 1203.71 1440.41 1217.25 1438.27 z"/>
<path transform="translate(0,0)" fill="rgb(253,253,253)" d="M 1221.3 1464.24 C 1224.27 1464.61 1227.23 1465.05 1229.81 1466.69 C 1234.39 1469.59 1237.43 1474.41 1238.63 1479.65 C 1240.13 1486.21 1238.99 1493.49 1235.09 1499.03 C 1231.58 1504.03 1227.42 1505.6 1221.63 1506.74 C 1218.55 1506.39 1215.15 1506.05 1212.37 1504.6 C 1207.82 1502.23 1204.43 1497.61 1203.08 1492.71 A 23.003 23.003 0 0 1 1205.44 1474.95 C 1209.16 1468.64 1214.38 1465.93 1221.3 1464.24 z"/>
<path transform="translate(0,0)" fill="rgb(229,223,229)" d="M 0 1782.06 C 36.303 1764.26 73.0993 1749.04 112.206 1738.56 C 202.014 1714.5 302.213 1717.19 390.236 1747.35 C 475.602 1776.6 555.625 1831.56 608.38 1905.56 C 621.681 1924.21 632.423 1944.15 642.853 1964.5 C 678.962 1945.05 706.092 1934.88 747.424 1947.51 C 779.922 1957.44 808.921 1981.57 824.853 2011.69 C 831 2023.3 835.027 2035.86 839.987 2048 L 815.87 2048 C 803.532 2016.49 789.235 1991.28 757.645 1975.75 C 727.915 1961.15 690.532 1960.71 662.478 1979.64 C 656.302 1983.81 647.605 1993.45 640.69 1995.29 C 638.945 1995.75 633.902 1995.44 632.659 1994.1 C 625.054 1985.93 620.678 1970.01 615.357 1959.94 A 431.027 431.027 0 0 0 592.866 1922.56 C 555.848 1867.51 499.786 1822.35 440.829 1792.74 C 335.36 1739.76 204.685 1730.41 92.5136 1767.72 C 72.5556 1774.36 52.9056 1782.89 33.9689 1792 C 23.2112 1797.18 12.5828 1804.02 1.21176 1807.66 C 0.80991 1807.79 0.40392 1807.91 0 1808.03 L 0 1782.06 z"/>
<path transform="translate(0,0)" fill="rgb(229,223,229)" d="M 0 1549.58 C 48.1263 1536.48 105.473 1542.23 148.905 1567.16 C 182.786 1586.61 205.732 1610.13 227.19 1642.18 C 297.02 1604.42 374.879 1600.36 450.209 1622.91 C 530.664 1646.99 604.985 1708.77 644.732 1782.65 A 687.991 687.991 0 0 1 669.866 1835.52 C 705.382 1814.94 740.8 1805.52 781.391 1816.32 A 225.651 225.651 0 0 1 792.992 1819.67 C 798.8 1809.05 804.426 1798.11 811.69 1788.39 C 837.601 1753.71 878.949 1727.99 920.134 1715.98 C 972.841 1700.6 1031.35 1708.43 1079.25 1734.85 C 1122.64 1758.77 1152.01 1796.07 1170.38 1841.48 L 1171.68 1841.08 C 1194.29 1834.35 1221.17 1837.28 1241.87 1848.55 A 95.1816 95.1816 0 0 1 1287.72 1905.64 C 1289.71 1912.59 1293.66 1924.1 1290.02 1930.86 C 1288.43 1933.83 1284.93 1936.41 1281.59 1936.95 C 1278.29 1937.48 1274.88 1936.9 1272.44 1934.42 C 1267.42 1929.34 1267.81 1917.44 1265.84 1910.65 C 1258.19 1884.35 1233.56 1864.08 1206.61 1860.92 C 1191.09 1859.11 1174.72 1867.25 1162.21 1865.98 C 1159.04 1865.66 1157.23 1864.71 1155.21 1862.23 C 1148.87 1854.46 1144.25 1835.26 1138.41 1824.88 C 1109.8 1774.03 1061.8 1741.29 1003.97 1732.38 C 955.445 1724.91 904.155 1738.85 864.891 1767.96 C 844.87 1782.81 826.979 1801.44 816.069 1824.11 C 813.202 1830.07 810.528 1841.76 805.993 1846.01 C 803.791 1848.08 801.436 1847.53 798.623 1847.19 C 790.842 1846.24 782.905 1842.39 775.516 1839.78 C 754.395 1832.32 732.51 1833.84 711.676 1841.32 A 131.832 131.832 0 0 0 693.391 1849.54 C 687.079 1852.98 667.529 1867.58 661.541 1867.46 C 659.114 1867.41 656.267 1864.8 654.896 1862.97 C 650.278 1856.78 647.947 1842.97 644.848 1835.26 A 397.914 397.914 0 0 0 626.854 1797.15 C 581.869 1713.83 499.127 1651.73 405.634 1634.96 C 365.646 1627.78 319.497 1630.09 280.74 1642.86 C 267.127 1647.34 253.549 1653.95 240.847 1660.51 C 232.644 1664.74 219.698 1673.42 212.527 1663.72 C 205.485 1654.19 200.509 1643.1 193.355 1633.56 C 168.901 1600.94 128.771 1576.7 88.955 1568.89 C 58.5945 1562.93 29.4757 1565.54 0 1574.14 L 0 1549.58 z"/>
<path transform="translate(0,0)" fill="rgb(253,253,253)" d="M 0 1808.03 C 0.40392 1807.91 0.80991 1807.79 1.21176 1807.66 C 12.5828 1804.02 23.2112 1797.18 33.9689 1792 C 52.9056 1782.89 72.5556 1774.36 92.5136 1767.72 C 204.685 1730.41 335.36 1739.76 440.829 1792.74 C 499.786 1822.35 555.848 1867.51 592.866 1922.56 A 431.027 431.027 0 0 1 615.357 1959.94 C 620.678 1970.01 625.054 1985.93 632.659 1994.1 C 633.902 1995.44 638.945 1995.75 640.69 1995.29 C 647.605 1993.45 656.302 1983.81 662.478 1979.64 C 690.532 1960.71 727.915 1961.15 757.645 1975.75 C 789.235 1991.28 803.532 2016.49 815.87 2048 L 590.236 2048 L 565.16 2048 L 447.208 2048 L 418.29 2048 L 107.324 2048 L 76.1897 2048 L 0 2048 L 0 1952.43 L 0 1923.09 L 0 1808.03 z"/>
<path transform="translate(0,0)" fill="rgb(229,223,229)" d="M 0 1923.09 A 426.795 426.795 0 0 1 321.796 1853.48 C 417.883 1870.9 506.079 1918.05 562.714 1999.64 C 573.355 2014.97 581.702 2031.46 590.236 2048 L 565.16 2048 C 555.9 2029.06 545.024 2011.4 531.541 1995.15 C 470.595 1921.69 383.636 1880.83 289.199 1871.93 C 187.109 1862.29 80.1663 1886.19 0 1952.43 L 0 1923.09 z"/>
<path transform="translate(0,0)" fill="rgb(253,253,253)" d="M 0 1952.43 C 80.1663 1886.19 187.109 1862.29 289.199 1871.93 C 383.636 1880.83 470.595 1921.69 531.541 1995.15 C 545.024 2011.4 555.9 2029.06 565.16 2048 L 447.208 2048 L 418.29 2048 L 107.324 2048 L 76.1897 2048 L 0 2048 L 0 1952.43 z"/>
<path transform="translate(0,0)" fill="rgb(229,223,229)" d="M 76.1897 2048 C 117.654 1998.82 184.228 1970.38 247.501 1964.95 C 306.015 1959.93 368.947 1974.67 414.526 2013.14 C 426.618 2023.35 437.576 2035.46 447.208 2048 L 418.29 2048 C 409.904 2040.38 402.448 2032.22 393.448 2025.18 C 362.167 2000.73 322.377 1989.81 283.218 1987.34 A 241.551 241.551 0 0 0 107.324 2048 L 76.1897 2048 z"/>
<path transform="translate(0,0)" fill="rgb(253,253,253)" d="M 107.324 2048 A 241.551 241.551 0 0 1 283.218 1987.34 C 322.377 1989.81 362.167 2000.73 393.448 2025.18 C 402.448 2032.22 409.904 2040.38 418.29 2048 L 107.324 2048 z"/>
<path transform="translate(0,0)" fill="rgb(100,61,96)" d="M 681.846 490.775 C 750.131 493.72 863.057 577.445 910.102 624.034 C 916.822 630.689 941.9 654.333 941.957 662.944 C 936.707 669.276 913.43 675.275 904.881 678.726 A 502.642 502.642 0 0 0 847.582 706.895 A 195.347 195.347 0 0 1 921.97 723.257 C 931.843 727.698 955.15 738.695 959.052 749.072 C 957.929 753.405 954.874 754.679 951.068 756.575 C 938.081 763.045 924.888 768.966 912.253 776.14 C 801.709 838.902 695.676 936.975 610.577 1030.95 C 646.947 1020.65 687.241 1018.37 724.652 1022.32 C 731.783 1023.08 739.574 1023.52 746.374 1025.87 C 750.339 1027.24 752.554 1028.86 754.481 1032.56 C 754.825 1040.91 739.357 1051.22 733.158 1056.57 A 2160.88 2160.88 0 0 0 395.896 1428.3 A 1973.32 1973.32 0 0 0 348.29 1496.15 C 335.885 1514.42 316.828 1547.1 301.196 1560.58 C 298.906 1562.55 296.666 1564.16 293.51 1563.98 C 291.509 1562.55 291.305 1562.12 290.623 1559.72 C 287.404 1548.36 302.249 1512.27 306.362 1500.18 C 351.146 1368.48 406.339 1238.51 480.898 1120.75 C 460.878 1129.48 440.579 1137.58 420.65 1146.52 C 404.677 1153.69 388.704 1162.07 372.274 1168.07 C 368.36 1169.5 364.538 1170.8 360.326 1170.74 C 358.332 1169.36 357.512 1169 356.669 1166.61 C 350.29 1148.56 423.153 991.546 435.037 963.566 C 420.918 970.778 378.268 998.602 365.187 999.405 C 362.69 999.558 362.462 998.856 360.733 997.23 C 360.016 995.186 359.602 993.584 359.772 991.397 C 360.874 977.209 385.705 924.476 392.448 909.533 C 452.592 776.244 531.614 641.695 633.452 535.885 C 648.75 519.99 665.489 505.554 681.846 490.775 z"/>
<path transform="translate(0,0)" fill="rgb(200,164,179)" d="M 686.602 499.88 C 743.228 510.11 797.542 545.001 843.332 578.489 C 802.693 602.647 763.755 633.349 728.446 664.706 A 1259.29 1259.29 0 0 0 473.891 975.501 C 456.595 1005.46 441.203 1036.34 425.894 1067.33 C 419.208 1080.87 393.113 1130.3 392.358 1143.05 L 394.236 1146.44 C 390.141 1152.79 372.387 1157.51 365.433 1160.16 A 817.005 817.005 0 0 1 405.445 1051.64 C 418.232 1022.87 432.438 994.459 444.278 965.309 C 445.449 962.426 446.306 959.828 445.162 956.76 C 444.576 955.189 442.531 953.376 440.836 953.09 C 433.581 951.869 380.732 984.566 368.621 990.312 C 381.539 954.209 397.356 919.577 413.619 884.896 C 424.861 860.919 436.033 836.727 448.408 813.314 A 1323.61 1323.61 0 0 1 617.766 566.289 C 638.199 543.153 660.788 517.155 686.602 499.88 z"/>
<path transform="translate(0,0)" fill="rgb(253,253,253)" d="M 683.718 532.735 C 684.264 532.849 684.829 532.895 685.356 533.076 C 687.629 533.858 688.679 535.217 689.773 537.228 C 689.534 540.452 689.099 540.713 687.002 543.171 C 679.169 552.352 669.381 560.379 660.971 569.114 A 1137.1 1137.1 0 0 0 611.213 625.054 C 554.032 694.435 504.737 772.46 462.552 851.738 C 446.396 882.098 432.724 913.798 416.211 943.921 C 415.53 943.838 414.849 943.783 414.193 943.553 C 412.803 943.066 411.425 942.591 410.775 941.205 C 409.377 938.228 410.222 934.604 411.066 931.575 C 414.35 919.789 421.563 907.685 426.707 896.51 A 1362.38 1362.38 0 0 1 626.9 587.365 C 643.161 568.618 662.053 545.044 683.718 532.735 z"/>
<path transform="translate(0,0)" fill="rgb(250,229,172)" d="M 850.963 584.756 C 871.79 595.794 914.972 640.436 931.013 658.899 C 908.231 666.188 857.007 688.817 838.017 702.418 C 834.966 704.604 832.297 706.632 831.692 710.56 C 832.312 711.772 832.425 712.743 833.761 713.298 C 840.775 716.209 853.417 715.397 861.244 716.275 C 892.691 719.8 921.82 730.17 947.898 748.002 C 834.63 804.766 735.508 887.861 647.638 978.444 L 618.982 1008.53 C 612.459 1015.3 605.233 1021.95 599.399 1029.32 C 597.111 1032.2 594.989 1035.03 595.382 1038.89 C 597.906 1041.36 598.557 1041.78 602.265 1041.45 C 614.263 1040.35 626.258 1035.86 638.161 1033.67 C 669.285 1027.95 711.913 1025.66 742.937 1034.49 L 744.311 1034.89 C 732.901 1047.46 717.942 1058.43 705.259 1069.86 A 2169.66 2169.66 0 0 0 629.297 1141.18 A 2099.06 2099.06 0 0 0 397.446 1410.5 C 379.101 1435.57 360.615 1460.7 343.168 1486.41 C 328.517 1508 314.883 1530.06 299.454 1551.12 C 309.442 1516.79 321.527 1483.31 333.797 1449.74 A 1989.93 1989.93 0 0 1 418.191 1250.22 C 431.492 1223.3 445.597 1196.2 460.778 1170.3 C 469.743 1155 480.579 1139.9 488.253 1123.94 C 490.064 1120.18 491.848 1116.39 491.604 1112.14 L 490.077 1110.92 C 475.253 1109.88 420.427 1137.18 401.912 1144.01 C 410.469 1115.02 426.23 1086.55 439.447 1059.47 C 516.658 901.229 638.089 742.311 778.502 634.65 C 801.828 616.764 825.24 599.077 850.963 584.756 z"/>
<path transform="translate(0,0)" fill="rgb(100,61,96)" d="M 1519.56 509.405 C 1527 508.338 1535.37 508.702 1542.93 508.693 C 1586.68 508.642 1625.7 518.767 1666.05 535.086 A 226.466 226.466 0 0 1 1675.07 529.372 C 1700.05 514.501 1733.45 508.572 1761.68 516.41 C 1765.11 517.361 1767.84 518.105 1769.73 521.318 C 1769.58 523.971 1769.26 525.05 1767.43 527.048 C 1764.31 530.457 1759.75 532.822 1755.83 535.168 C 1743.38 542.615 1730.64 550.073 1722.45 562.4 L 1721.66 563.623 C 1740.79 570.299 1761.11 581.965 1773.61 598.388 C 1775.84 601.32 1776.89 603.91 1776.41 607.662 C 1774.03 610.312 1771.9 610.512 1768.55 611.584 C 1807.38 655.302 1831.51 703.429 1839.06 761.746 C 1845.95 814.972 1835.67 874.104 1809.16 921.031 C 1801.4 934.766 1791.93 947.051 1782.31 959.496 A 276.103 276.103 0 0 1 1813.92 961.737 C 1862.21 967.612 1917.64 980.855 1948.88 1021.36 C 1961.47 1037.69 1968.76 1058.24 1965.91 1078.95 C 1963.55 1096.06 1954.19 1110.75 1940.51 1121.08 C 1911.81 1142.73 1879.21 1139.97 1845.69 1135.36 C 1848.18 1138.45 1850.65 1141.68 1852.7 1145.08 A 106.97 106.97 0 0 1 1865.35 1226.7 C 1859.26 1250.35 1843.47 1270.08 1822.4 1282.26 C 1800.59 1294.86 1773.41 1297.66 1749.18 1291.11 C 1720.62 1283.38 1697.84 1260.72 1683.32 1235.71 C 1676.31 1250.91 1667.21 1263.13 1651.33 1269.75 C 1639.15 1274.84 1626.31 1274.61 1614.16 1269.61 C 1591.81 1260.42 1578.67 1239.33 1569.7 1218.02 C 1563.06 1223.29 1555.95 1227.61 1547.43 1228.9 C 1533.63 1230.99 1523.05 1225.39 1512.47 1217.33 C 1511.36 1220.37 1510.27 1223.56 1508.83 1226.46 C 1503.47 1237.18 1493.93 1244.5 1482.54 1247.88 C 1469.33 1251.8 1456.31 1249.86 1444.4 1243.12 C 1418.19 1228.28 1405.52 1198.99 1397.99 1171.23 L 1396.04 1161.7 C 1373.65 1176.18 1349.57 1187.88 1327.7 1203.29 C 1322.96 1220.29 1318.9 1239.91 1307.13 1253.69 C 1300.06 1261.96 1290.11 1268.13 1280.21 1272.47 C 1262.46 1280.24 1246.92 1277.25 1230.45 1284.24 C 1214.11 1291.17 1166.21 1318.84 1153.33 1320.08 L 1152.59 1319.15 C 1151.6 1309.41 1153.94 1298.31 1155 1288.54 C 1156.22 1277.17 1157.13 1265.89 1157.59 1254.46 C 1158.45 1233.01 1155.81 1211.18 1157.56 1189.9 C 1158.32 1180.66 1160.01 1171.68 1163.04 1162.91 C 1171.99 1137.1 1188.33 1122.57 1212.4 1110.83 C 1220.34 1088.13 1228.01 1065.35 1237.04 1043.05 C 1230.59 1046.37 1223.97 1049.49 1217.18 1052.07 C 1193.67 1060.98 1167.72 1062.19 1144.46 1051.65 C 1131.05 1045.58 1118.38 1035.22 1113.38 1020.96 C 1108.81 1007.91 1111.85 996.111 1117.74 984.212 C 1098.58 983.969 1080.26 976.971 1066.49 963.467 C 1057.37 954.528 1051.55 942.71 1051.7 929.782 C 1051.88 913.723 1060.23 902.965 1071.03 892.22 C 1066.84 891.59 1062.65 890.953 1058.52 890.006 C 1034.6 884.515 1012.56 871.535 999.416 850.384 C 985.828 828.527 983.776 801.002 989.793 776.348 C 997.183 746.068 1018.15 715.913 1045.04 699.823 A 89.6736 89.6736 0 0 1 1112.94 689.366 C 1120.44 678.908 1129.42 671.082 1141.51 666.47 C 1162.34 658.525 1180.07 663.792 1199.51 672.397 C 1184.84 640.302 1168.13 612.624 1176.78 575.382 C 1179.68 562.924 1186.23 551.651 1197.43 544.977 C 1209.35 537.878 1222.96 538.243 1235.92 541.823 C 1274.42 552.463 1306.59 591.861 1325.69 625.415 C 1332.21 616.68 1338.7 607.9 1345.66 599.51 C 1390.81 545.111 1449.52 515.899 1519.56 509.405 z"/>
<path transform="translate(0,0)" fill="rgb(250,229,172)" d="M 1726.42 522.352 C 1736.21 520.48 1746.43 522.14 1756.05 524.023 C 1746.89 529.383 1737.59 534.778 1729.41 541.587 C 1723.15 546.8 1709.2 558.696 1708.49 566.927 C 1712.04 572.967 1734.73 578.702 1742.17 583.243 C 1750.86 588.55 1758.46 596.394 1765.77 603.389 C 1756.1 604.147 1746.42 604.481 1736.75 603.426 C 1719.7 602.03 1702.95 596.091 1687.68 588.62 C 1677.69 583.739 1653.82 572.36 1650.49 561.042 C 1649.75 558.529 1650.13 556.81 1651.59 554.603 C 1654.41 550.328 1660.53 547.287 1664.82 544.774 C 1684.56 533.217 1703.62 525.377 1726.42 522.352 z"/>
<path transform="translate(0,0)" fill="rgb(250,229,172)" d="M 1451.8 1006.61 C 1463.71 1013.56 1476.28 1019.15 1488.78 1024.92 C 1472.3 1041.65 1452.24 1056.78 1433.98 1071.63 A 2887.63 2887.63 0 0 1 1339.8 1146.12 L 1323.11 1158.88 C 1320.53 1153.92 1318.09 1148.87 1315.6 1143.87 C 1327.44 1130.41 1340.83 1118.27 1353.61 1105.71 C 1385.51 1074.35 1422.54 1039.84 1451.8 1006.61 z"/>
<path transform="translate(0,0)" fill="rgb(250,229,172)" d="M 1343.56 923.556 C 1354.59 932.164 1364.59 943.971 1374.96 953.609 C 1366.44 970.612 1355.24 986.227 1345.24 1002.37 A 4317.19 4317.19 0 0 1 1283.15 1101.02 L 1276.74 1111.01 C 1271.17 1108.54 1265.42 1106.95 1259.59 1105.28 C 1271.61 1070.65 1290.15 1037.23 1305.91 1004.13 C 1318.62 977.459 1329.76 949.643 1343.56 923.556 z"/>
<path transform="translate(0,0)" fill="rgb(200,164,179)" d="M 1307.39 872.44 C 1310.46 874.248 1331.1 908.017 1337.62 915.446 C 1309.81 978.927 1277.49 1040.37 1249.94 1104.02 C 1241.02 1104.7 1232.32 1105.64 1223.51 1107.21 C 1231.59 1079.08 1242.88 1051.41 1252.91 1023.91 C 1271.27 973.529 1289.89 923.126 1307.39 872.44 z"/>
<path transform="translate(0,0)" fill="rgb(200,164,179)" d="M 1497.13 1028.7 C 1516.58 1036.57 1536.93 1042.74 1557.9 1044.44 C 1494.6 1087.19 1431.09 1130.28 1365.56 1169.53 A 1176.91 1176.91 0 0 1 1328.15 1192.35 C 1328.22 1184.39 1327.63 1175.95 1325.62 1168.24 C 1340.92 1154.82 1358.26 1143.09 1374.37 1130.62 C 1414.44 1099.59 1460.78 1063.65 1497.13 1028.7 z"/>
<path transform="translate(0,0)" fill="rgb(200,164,179)" d="M 1382.26 959.97 C 1402.19 975.428 1422.54 989.263 1444.32 1001.98 C 1429.67 1018.57 1413.65 1034.02 1397.99 1049.66 A 6786.71 6786.71 0 0 1 1328.65 1118.26 A 1177.92 1177.92 0 0 1 1310.64 1136.01 C 1302.85 1128 1294.84 1120.61 1285.75 1114.08 C 1317.18 1062.31 1350.19 1011.36 1382.26 959.97 z"/>
<path transform="translate(0,0)" fill="rgb(250,229,172)" d="M 1243.64 1113.42 A 64.2069 64.2069 0 0 1 1270.04 1117.06 C 1288.87 1124.04 1304.28 1139.06 1312.5 1157.29 C 1322.53 1179.52 1320.22 1206.35 1311.62 1228.71 C 1302.94 1251.3 1285.04 1264.31 1261.73 1269.24 C 1252.77 1271.13 1243.6 1271.69 1234.72 1274.03 C 1227.63 1275.89 1220.98 1278.95 1214.32 1281.93 A 3044.56 3044.56 0 0 1 1161.88 1308.01 C 1164.76 1286.28 1165.64 1264.15 1165.71 1242.25 C 1165.82 1207.96 1160.11 1169.63 1184.18 1141.22 C 1199.64 1122.98 1220.37 1115.33 1243.64 1113.42 z"/>
<path transform="translate(0,0)" fill="rgb(100,61,96)" d="M 1285.39 1211.84 C 1288.19 1211.88 1289.95 1211.81 1292.35 1213.51 C 1293.11 1215.69 1293.39 1216.14 1292.42 1218.39 C 1289.92 1224.21 1283.11 1228.35 1277.57 1230.69 C 1274.66 1230.46 1273.12 1230.15 1270.49 1228.7 C 1269.84 1227.37 1269.13 1226.76 1269.55 1225.23 C 1271.24 1218.95 1280.01 1214.67 1285.39 1211.84 z"/>
<path transform="translate(0,0)" fill="rgb(100,61,96)" d="M 1280.37 1179.81 C 1283.67 1179.56 1286.12 1179.63 1289.05 1181.36 C 1290.17 1183.47 1290.63 1184.02 1289.91 1186.49 C 1288.27 1192.06 1282.56 1195.94 1277.89 1198.72 C 1274.92 1199.14 1273.07 1199.07 1270.34 1197.75 C 1269.15 1195.86 1268.84 1195.26 1269.3 1192.88 C 1270.44 1187.13 1275.96 1182.93 1280.37 1179.81 z"/>
<path transform="translate(0,0)" fill="rgb(100,61,96)" d="M 1224.34 1151.22 C 1228.83 1150.85 1232.69 1150.58 1237.03 1152.17 C 1240.11 1153.3 1241.08 1154.53 1242.39 1157.46 C 1242.26 1162.12 1240.52 1165.32 1237.3 1168.69 C 1235.05 1171.05 1232.71 1173.05 1229.32 1173.03 L 1228.21 1171.61 C 1227.92 1168.43 1229.46 1166.38 1230.96 1163.72 L 1231.69 1162.45 C 1231.23 1162.16 1230.8 1161.81 1230.31 1161.58 C 1224.14 1158.6 1217.61 1165.58 1211.66 1167.24 C 1208.91 1166.5 1208.84 1166.4 1207.07 1164.16 L 1207.63 1161.72 C 1211.94 1156.5 1218.16 1153.6 1224.34 1151.22 z"/>
<path transform="translate(0,0)" fill="rgb(100,61,96)" d="M 1201.24 1181.23 C 1202.79 1181.57 1203.82 1181.98 1205.23 1182.63 C 1207.47 1189.23 1202.97 1200.1 1204.33 1207.9 C 1207.15 1224.14 1221.82 1237.49 1237.96 1239.92 C 1243.12 1240.7 1254.7 1238.58 1258.47 1241.22 C 1259.31 1244.13 1259.03 1244.46 1258.03 1247.36 A 56.9794 56.9794 0 0 1 1255.72 1248.03 C 1243.62 1251.24 1230.12 1248.38 1219.51 1242.03 C 1208.52 1235.44 1199.49 1224.74 1196.49 1212.12 A 40.7592 40.7592 0 0 1 1201.24 1181.23 z"/>
<path transform="translate(0,0)" fill="rgb(191,225,212)" d="M 1212.88 548.136 C 1218.95 547.913 1224.5 547.911 1230.48 549.341 C 1269.65 558.713 1301.18 601.753 1321.01 634.064 C 1315.15 644.526 1309.93 655.556 1305.16 666.555 C 1275.69 734.512 1276.21 792.305 1303.05 860.371 C 1299.1 870.648 1295.23 880.663 1292.27 891.291 C 1260.73 890.01 1232.45 876.407 1206.17 859.89 C 1164.37 831.117 1125.3 788.605 1115.86 737.06 C 1112.87 720.744 1113.57 703.58 1123.71 689.682 C 1131.31 679.254 1142.34 673.288 1155.05 671.621 C 1181.13 668.2 1205.75 684.9 1225.35 700.03 C 1210.94 674.591 1194.81 648.04 1187.17 619.626 C 1182.61 602.656 1180.7 579.783 1190.13 564.118 C 1195.41 555.336 1203.15 550.604 1212.88 548.136 z"/>
<path transform="translate(0,0)" fill="rgb(253,253,253)" d="M 1214.67 560.293 C 1217.95 560.079 1221.05 560.073 1224.27 560.833 C 1260.29 569.336 1290.35 609.932 1308.71 639.581 C 1305.94 642.751 1302.88 645.534 1299.79 648.381 C 1298.2 647.978 1297.67 648.017 1296.4 646.881 C 1290.69 641.769 1285.89 632.071 1281.28 625.751 C 1272.47 613.66 1261.41 601.59 1249.92 591.97 C 1240.56 584.14 1212 573.48 1209.5 570.773 C 1207.55 568.659 1207.72 567.915 1207.73 565.218 C 1209.9 562.235 1211.39 561.839 1214.67 560.293 z"/>
<path transform="translate(0,0)" fill="rgb(253,253,253)" d="M 1086.72 695.358 C 1094.19 694.658 1101.41 695.77 1108.73 697.125 A 111.146 111.146 0 0 0 1106.57 707.016 C 1100.67 740.892 1117.18 778.019 1136.3 805.111 A 232.613 232.613 0 0 0 1288.94 900.867 C 1271.67 942.96 1257.76 986.579 1241.99 1029.27 C 1234.75 1034.64 1227.27 1039.18 1218.97 1042.73 C 1195.39 1052.8 1171.34 1053.52 1147.51 1044.05 A 54.1574 54.1574 0 0 1 1135.18 1036.39 C 1127 1029.54 1120.93 1019.93 1120.16 1009.12 C 1119.47 999.316 1123.22 991.675 1129.67 984.593 C 1134.66 983.894 1141.1 983.297 1144.98 979.796 C 1146.45 978.466 1146.02 978.304 1146.07 976.469 C 1144.59 975.008 1144.05 973.89 1141.79 973.63 C 1138.43 973.243 1133.59 974.399 1130.15 974.729 C 1114.76 976.205 1102.03 975.484 1087.89 968.447 C 1076.38 962.718 1066.18 952.992 1062.37 940.449 C 1057.44 924.194 1064.73 907.489 1078.35 898.046 C 1083 894.819 1089.61 892.937 1092.26 887.87 C 1091.67 884.137 1090.94 884.453 1087.4 884.07 C 1062.93 881.42 1045.02 881.402 1024.39 865.253 C 1008.07 852.477 998.074 833.569 995.564 813.105 C 992.17 785.429 1002.98 755.503 1019.96 733.876 C 1036.97 712.196 1059.25 698.712 1086.72 695.358 z"/>
<path transform="translate(0,0)" fill="rgb(200,164,179)" d="M 1521.63 517.415 C 1559.73 511.679 1620.6 525.22 1655.29 540.511 C 1649.84 544.246 1642.85 548.415 1641.14 555.263 C 1639.54 561.674 1643.54 567.425 1647.77 571.814 C 1659 583.48 1674.33 590.651 1687.31 600.107 C 1717.29 621.947 1740.42 650.546 1760.55 681.367 C 1738.12 664.781 1713.42 653.949 1686.52 646.661 C 1670.16 642.228 1651.69 640.896 1637.49 630.89 C 1628.21 624.349 1621.74 613.868 1614.71 605.089 C 1593.78 578.945 1565.13 560.925 1531.42 557.368 C 1483.19 552.276 1435.07 571.349 1398.24 601.748 C 1354.9 637.53 1326.55 692.933 1321.57 748.855 C 1316.23 808.872 1339.88 863.267 1378.03 908.478 C 1408.5 944.585 1476.86 985.843 1521.37 1001.58 A 214.745 214.745 0 0 0 1573.24 1012.82 A 213.744 213.744 0 0 0 1727.61 963.157 C 1776.98 921.138 1796.58 869.927 1801.8 806.546 A 235.648 235.648 0 0 0 1801.83 792.346 C 1799.57 714.772 1763.7 658.504 1709.04 606.729 C 1725.97 610.605 1741.16 613.359 1758.61 612.602 C 1766.23 623.918 1776.64 633.396 1784.69 644.484 C 1810.1 679.49 1826.3 724.632 1830.84 767.486 C 1837.58 831.05 1819.62 900.186 1779.23 950.045 C 1740.09 998.359 1685.28 1030.51 1623.07 1036.77 C 1595.02 1039.59 1564.84 1038.59 1537.34 1032.26 C 1487.1 1020.69 1428.87 986.676 1388.91 953.888 C 1337.92 912.047 1298.85 856.194 1292.62 788.869 C 1286.65 724.294 1311.97 653.309 1353.38 603.705 C 1395.83 552.866 1456.1 523.337 1521.63 517.415 z"/>
<path transform="translate(0,0)" fill="rgb(253,253,253)" d="M 1774.65 968.692 C 1789.88 968.752 1804.75 969.069 1819.88 971.046 C 1862.42 976.6 1914.1 990.444 1941.36 1026.28 C 1952.28 1040.63 1960.24 1059.7 1957.42 1077.93 C 1955.13 1092.79 1945.89 1106.32 1933.85 1115.12 C 1911.66 1131.34 1880.61 1132.61 1854.53 1127.59 C 1845.4 1125.83 1836.55 1122.81 1827.35 1121.36 L 1826.24 1122.21 C 1826.12 1129.25 1842 1143.98 1846.15 1151.27 A 110.689 110.689 0 0 1 1857.8 1182.23 C 1862.41 1204.93 1859.37 1229.37 1846.1 1248.73 A 85.5303 85.5303 0 0 1 1789.59 1284.58 C 1755.67 1290.2 1720.47 1273.86 1700.75 1246.05 C 1695.82 1239.11 1688.01 1223.15 1681.78 1218.71 C 1674.85 1225.08 1673.81 1237.58 1668.19 1245.31 C 1659.74 1256.93 1649.32 1262.85 1635.4 1265.22 C 1631.69 1265.15 1627.85 1264.87 1624.25 1263.95 C 1605.22 1259.07 1590.72 1241.91 1582.42 1224.86 C 1578.63 1217.09 1575.88 1208.78 1571.6 1201.26 C 1566.44 1202.12 1558.4 1219.14 1545.41 1221.14 C 1528.68 1223.72 1516.99 1206.25 1505.03 1198.03 C 1499.56 1201.59 1504.83 1216.98 1500.5 1223.5 C 1494.78 1232.12 1486.88 1238.74 1476.53 1240.71 C 1464.73 1242.94 1453.06 1238.83 1443.54 1231.94 C 1420.17 1215.03 1408.84 1183.7 1404.28 1156.27 C 1434.03 1135.49 1465.18 1116.39 1495.51 1096.44 C 1520.61 1079.93 1545.04 1062.3 1570.45 1046.3 A 411.246 411.246 0 0 0 1590.4 1046.9 C 1668.87 1047.89 1719.43 1022.48 1774.65 968.692 z"/>
<path transform="translate(0,0)" fill="rgb(253,253,253)" d="M 1506.75 565.426 C 1541.1 561.118 1579.82 577.69 1602.37 603.407 C 1614.64 617.393 1623.93 633.898 1641.08 642.691 C 1651.12 647.843 1662.43 649.977 1673.33 652.532 C 1700.1 658.805 1725.17 666.277 1747.61 682.834 C 1774.86 702.939 1784.36 721.106 1789.37 754.101 C 1798.29 812.897 1789.84 874.704 1753.57 923.34 A 205.297 205.297 0 0 1 1617.99 1002.82 C 1616.18 1003.14 1614.37 1003.38 1612.55 1003.59 A 190.466 190.466 0 0 1 1547.89 1000.35 C 1506.26 990.631 1445.14 956.012 1411.22 928.718 C 1368.44 894.307 1336.24 839.424 1330.7 784.504 C 1325.44 732.265 1343.48 676.303 1376.74 635.866 C 1409.58 595.94 1455.14 570.278 1506.75 565.426 z"/>
<path transform="translate(0,0)" fill="rgb(100,61,96)" d="M 1557.87 766.789 C 1562.45 766.808 1566.17 767.468 1570.42 769.235 C 1577.48 772.17 1590.3 779.396 1592.33 787.076 C 1593.22 790.436 1592.2 791.34 1590.65 794.104 C 1582.96 791.312 1577.69 782.44 1569.92 779.026 C 1565.39 777.037 1558.81 777.668 1555.35 773.921 C 1555.01 771.186 1556.6 769.093 1557.87 766.789 z"/>
<path transform="translate(0,0)" fill="rgb(100,61,96)" d="M 1511.47 758.519 C 1513.7 758.674 1515.01 758.697 1517.04 759.773 C 1518.72 760.664 1518.42 760.944 1518.95 762.595 C 1516.53 770.055 1503.62 774.882 1497.87 779.909 C 1493.42 783.791 1489.54 788.775 1486.56 793.857 C 1477.28 809.709 1474.47 832.001 1479.4 849.684 A 57.4161 57.4161 0 0 0 1507.33 884.399 C 1526.91 894.989 1556.45 893.738 1573.6 878.777 C 1580.63 872.643 1591.08 852.353 1597.05 850.566 C 1599.9 851.429 1600.09 851.721 1602 854.037 C 1602.26 856.825 1602.2 857.088 1600.87 859.557 C 1595.63 867.598 1590.44 875.832 1583.5 882.546 C 1570.54 895.095 1552.35 901.849 1534.38 901.488 C 1516.39 901.126 1498.4 893.649 1485.97 880.533 C 1473.16 867.009 1466.69 848.312 1467.44 829.788 C 1468.27 809.24 1476.35 787.176 1492.11 773.44 C 1498.01 768.3 1504.86 764.739 1510.55 759.4 L 1511.47 758.519 z"/>
<path transform="translate(0,0)" fill="rgb(241,186,173)" d="M 1647.75 875.115 C 1657.72 874.449 1666.85 874.567 1676.07 879.083 A 39.9037 39.9037 0 0 1 1696.56 902.629 A 45.9773 45.9773 0 0 1 1693.44 938.892 C 1686.68 951.185 1675.73 958.102 1662.56 961.794 C 1653.81 963.579 1644.87 962.313 1636.82 958.421 C 1625.54 952.962 1616.78 942.281 1613.02 930.396 A 43.1265 43.1265 0 0 1 1616.44 896.728 C 1623.32 884.435 1634.8 878.884 1647.75 875.115 z"/>
<path transform="translate(0,0)" fill="rgb(241,186,173)" d="M 1392.57 725.155 C 1402.15 724.492 1410.38 724.453 1419.45 728.327 A 46.4022 46.4022 0 0 1 1444.87 755.155 A 43.8661 43.8661 0 0 1 1443.39 789.208 C 1437.15 802.099 1426.54 808.158 1413.62 812.707 C 1403.67 814.017 1393.95 813.524 1384.7 809.288 A 46.5083 46.5083 0 0 1 1359.88 781.9 A 44.505 44.505 0 0 1 1362.45 747.823 C 1368.94 735.335 1379.74 729.372 1392.57 725.155 z"/>
<path transform="translate(0,0)" fill="rgb(100,61,96)" d="M 1695.81 716.177 C 1704.62 715.625 1712.02 717.187 1719.85 721.445 C 1732.14 728.14 1740.59 739.532 1744.25 752.946 C 1750.41 775.576 1744.97 800.623 1733.29 820.539 C 1721.03 841.459 1703.27 855.939 1679.79 862.072 C 1668.73 863.672 1657.03 862.541 1647.27 856.75 C 1637.26 850.806 1630.68 840.497 1628.06 829.292 C 1622.26 804.399 1633.08 777.61 1646.02 756.822 C 1657.76 737.981 1673.54 721.323 1695.81 716.177 z"/>
<path transform="translate(0,0)" fill="rgb(253,253,253)" d="M 1653.79 798.028 C 1657.5 798.128 1661.51 798.652 1664.19 801.512 C 1666.67 804.159 1667.43 807.618 1666.95 811.134 C 1665.98 818.194 1661.65 823.387 1656.17 827.536 C 1655.01 827.685 1653.22 828.044 1652.02 827.857 C 1649.45 827.457 1647.23 825.772 1645.78 823.662 C 1642.94 819.522 1643.28 813.69 1644.54 809.073 C 1646.04 803.568 1648.98 800.805 1653.79 798.028 z"/>
<path transform="translate(0,0)" fill="rgb(253,253,253)" d="M 1697.98 724.223 C 1701.96 724.052 1706.1 724.709 1709.69 726.49 C 1713.8 728.529 1716.82 731.625 1718.24 736.038 C 1721.03 744.753 1718.49 755.954 1714.3 763.82 C 1707.66 776.31 1697.04 785.335 1683.44 789.297 C 1678.27 789.306 1673.81 789.349 1669.26 786.62 C 1664.62 783.836 1661.65 779.564 1660.63 774.248 C 1658.63 763.951 1662.4 752.149 1668.23 743.693 C 1675.41 733.258 1685.63 726.672 1697.98 724.223 z"/>
<path transform="translate(0,0)" fill="rgb(100,61,96)" d="M 1512.85 601.098 C 1522.23 600.347 1531.09 601.724 1539.84 605.133 C 1552.09 609.9 1561.91 618.492 1567.09 630.704 C 1574.77 648.791 1570.39 669.522 1563.11 686.954 C 1551.07 715.795 1530.08 740.693 1500.72 752.593 C 1497.39 753.588 1493.81 754.564 1490.34 754.789 C 1479.71 755.476 1469.44 751.355 1461.86 743.978 C 1451.45 733.841 1447.26 718.125 1447.29 703.91 C 1447.37 673.733 1471.66 645.057 1491.93 625.059 C 1495.57 621.472 1506.17 613.108 1508.25 609.252 C 1510.51 605.059 1508.74 605.125 1512.85 601.098 z"/>
<path transform="translate(0,0)" fill="rgb(253,253,253)" d="M 1480.96 690.093 C 1482.59 690.273 1484.06 690.544 1485.63 691.026 C 1488.29 691.842 1490.44 693.89 1491.58 696.405 C 1493.5 700.606 1492.6 705.515 1490.88 709.612 C 1487.61 717.421 1483.38 721.71 1475.57 724.75 C 1475.3 724.707 1475.04 724.672 1474.77 724.62 C 1470.81 723.842 1467.63 722.669 1465.65 718.935 C 1463.52 714.951 1464.12 710.147 1465.69 706.1 C 1468.61 698.621 1473.61 693.247 1480.96 690.093 z"/>
<path transform="translate(0,0)" fill="rgb(253,253,253)" d="M 1520.18 613.173 C 1523.87 612.801 1527.72 612.405 1531.37 613.249 C 1535.77 614.266 1539.76 616.761 1541.95 620.782 C 1545.51 627.296 1544.05 636.496 1541.92 643.222 C 1537.26 657.928 1526.8 669.728 1513.18 676.694 C 1509.93 677.295 1506.87 677.763 1503.6 677.011 C 1499.19 675.998 1495.13 673.772 1493 669.647 C 1489.23 662.342 1490.96 651.305 1493.41 643.849 C 1497.97 629.935 1507.3 619.72 1520.18 613.173 z"/>
</svg>